# Blender v2.79 (sub 0) OBJ File: 'Stones_and_buried_treasure.blend'
# www.blender.org
mtllib MediumStone.mtl
o Stone_4
v 0.003539 0.042855 -0.032998
v -0.007262 0.042345 -0.053742
v -0.050606 0.042345 -0.002501
v 0.024728 0.033003 0.070345
v 0.091555 0.024884 0.027843
v 0.071784 0.042345 -0.048847
v -0.092210 -0.054724 -0.047723
v -0.038487 -0.054724 0.079517
v 0.070126 -0.054724 0.081186
v 0.108889 -0.054724 -0.023102
v -0.017141 -0.054724 -0.143063
v -0.004277 -0.007265 -0.086667
v -0.064927 -0.000598 -0.032359
v -0.062914 0.005651 0.009478
v -0.050362 0.005349 0.047597
v -0.030135 -0.000220 0.079401
v 0.045657 -0.008168 0.064949
v 0.075736 -0.015723 0.047003
v 0.093270 -0.022512 0.000145
v 0.086742 -0.022796 -0.025328
v 0.034019 -0.014478 -0.081597
v -0.018219 0.042408 0.020452
v 0.025227 0.042442 0.062286
v 0.061702 0.042408 0.021617
v -0.010136 0.089109 0.021757
v 0.017741 0.068048 0.050638
v 0.031427 0.082469 0.022184
v -0.098125 -0.054724 0.009308
v -0.099763 -0.054724 0.076730
v -0.054127 -0.054724 0.040957
v -0.101749 0.000031 0.022353
v -0.090845 -0.000811 0.047200
v -0.068756 -0.004324 0.029185
v -0.109880 -0.054724 0.035282
v -0.070517 -0.054724 0.008173
v -0.071777 -0.054724 0.075938
v -0.087186 0.012873 0.032769
v 0.003539 0.042855 -0.032998
v 0.003539 0.042855 -0.032998
v -0.030135 -0.000220 0.079401
v -0.038487 -0.054724 0.079517
v -0.030135 -0.000220 0.079401
v 0.024728 0.033003 0.070345
v 0.024728 0.033003 0.070345
v 0.003539 0.042855 -0.032998
v 0.024728 0.033003 0.070345
v 0.024728 0.033003 0.070345
v 0.025227 0.042442 0.062286
v 0.003539 0.042855 -0.032998
v 0.003539 0.042855 -0.032998
v 0.003539 0.042855 -0.032998
v 0.025227 0.042442 0.062286
v 0.031427 0.082469 0.022184
v 0.031427 0.082469 0.022184
v 0.017741 0.068048 0.050638
v 0.025227 0.042442 0.062286
v 0.003539 0.042855 -0.032998
v 0.031427 0.082469 0.022184
v -0.090845 -0.000811 0.047200
v -0.071777 -0.054724 0.075938
v -0.071777 -0.054724 0.075938
v -0.068756 -0.004324 0.029185
v -0.068756 -0.004324 0.029185
vt 0.600000 1.000000
vt 0.500000 0.647584
vt 0.700000 0.647584
vt 0.800000 1.000000
vt 0.700000 0.647584
vt 0.900000 0.647584
vt 0.200000 1.000000
vt 0.100000 0.647584
vt 0.300000 0.647584
vt 0.400000 1.000000
vt 0.449018 0.497101
vt 0.544131 0.517325
vt 0.662291 0.536279
vt 0.738019 0.535364
vt -0.100000 0.647584
vt -0.143742 0.518471
vt -0.048090 0.494363
vt 0.040326 0.471444
vt 0.166651 0.450852
vt 0.233057 0.449990
vt 0.358394 0.475223
vt 0.600000 0.352416
vt 0.800000 0.352416
vt 0.856258 0.518471
vt 0.000000 0.352416
vt 0.200000 0.352416
vt 0.400000 0.352416
vt -0.200000 0.352416
vt 0.856258 0.518471
vt 0.900000 0.647584
vt 0.900000 0.647584
vt 0.800000 1.000000
vt 0.700000 0.647584
vt 0.900000 0.647584
vt 0.900000 0.647584
vt 0.900000 0.647584
vt 0.100000 0.647584
vt -0.100000 0.647584
vt 0.000000 1.000000
vt 0.800000 1.000000
vt 0.800000 1.000000
vt -0.100000 0.647584
vt 0.050000 0.823792
vt 0.050000 0.823792
vt -0.100000 0.647584
vt -0.100000 0.647584
vt 0.000000 1.000000
vt 0.050000 0.823792
vt 0.500000 0.695913
vt 0.500000 0.391827
vt 0.666667 0.304087
vt 0.833333 0.695913
vt 0.833333 0.391827
vt 1.000000 0.304087
vt -0.166667 0.695913
vt 0.000000 0.304087
vt 0.166667 0.898638
vt 0.000000 0.304087
vt 0.166667 0.391827
vt 0.333333 0.304087
vt 0.666667 1.000000
vt 0.666667 0.797276
vt 0.666667 1.000000
vn -0.0180 0.9997 -0.0152
vn 0.1318 0.8572 0.4979
vn 0.0556 0.9765 0.2080
vn 0.0016 0.9997 -0.0254
vn -0.5765 0.4274 -0.6963
vn -0.8744 0.3883 0.2910
vn 0.1836 -0.0354 0.9824
vn 0.9120 -0.1818 0.3676
vn 0.7211 -0.0828 -0.6879
vn -0.8898 0.4557 -0.0253
vn -0.8266 0.1278 0.5481
vn 0.5310 0.5140 0.6736
vn 0.8096 0.5467 -0.2136
vn 0.2226 0.7203 -0.6569
vn -0.5577 0.4745 -0.6811
vn -0.5702 0.6880 -0.4489
vn -0.9497 -0.0217 0.3125
vn -0.9184 0.0783 0.3878
vn 0.2123 0.4194 0.8826
vn -0.0154 0.0045 0.9999
vn 0.9234 0.2215 0.3134
vn 0.9240 0.1681 0.3434
vn 0.7334 0.0956 -0.6730
vn 0.6339 0.3933 -0.6660
vn -0.9483 0.3175 -0.0018
vn -0.6244 0.5755 -0.5282
vn -0.4220 0.8086 0.4100
vn -0.4300 0.7253 0.5377
vn 0.5369 0.1797 0.8243
vn 0.5435 0.1685 0.8223
vn 0.9600 0.1311 -0.2475
vn 0.9642 0.1590 -0.2124
vn 0.0514 0.5544 -0.8307
vn 0.1928 0.3907 -0.9001
vn -0.0061 1.0000 0.0059
vn -0.2982 0.8579 0.4184
vn -0.5814 0.5459 0.6033
vn 0.3821 0.8093 0.4461
vn 0.6578 0.4686 0.5896
vn 0.5078 0.6749 -0.5353
vn -0.9135 0.1685 -0.3704
vn 0.1299 0.7732 -0.6207
vn -0.6883 0.1239 0.7147
vn -0.6797 0.0973 0.7270
vn 0.6516 0.4841 0.5840
vn 0.6885 0.4573 0.5629
vn 0.6069 0.4678 -0.6425
vn -0.9104 0.0379 -0.4120
vn -0.8892 0.2260 0.3979
vn -0.9329 0.2790 0.2277
vn 0.0248 0.4771 0.8785
vn 0.5841 0.5329 0.6123
vn 0.8388 0.3423 0.4232
vn 0.8839 0.1533 -0.4419
vn 0.2348 0.3670 -0.9001
vn -0.0400 0.2291 -0.9726
vn 0.2373 0.4353 -0.8684
vn -0.7476 0.5661 0.3473
vn 0.5926 0.5041 0.6283
usemtl Stone
s off
f 1/1/1 2/2/1 3/3/1
f 27/4/2 25/5/2 26/6/2
f 38/7/3 5/8/3 6/9/3
f 39/10/4 6/9/4 2/2/4
f 2/2/5 12/11/5 13/12/5
f 3/3/6 14/13/6 15/14/6
f 4/15/7 16/16/7 17/17/7
f 5/8/8 18/18/8 19/19/8
f 6/9/9 20/20/9 21/21/9
f 7/22/10 14/13/10 13/12/10
f 8/23/11 40/24/11 15/14/11
f 9/25/12 18/18/12 17/17/12
f 10/26/13 20/20/13 19/19/13
f 11/27/14 12/11/14 21/21/14
f 7/22/15 13/12/15 12/11/15
f 12/11/16 11/27/16 7/22/16
f 8/23/17 15/14/17 14/13/17
f 14/13/18 7/22/18 8/23/18
f 9/25/19 17/17/19 16/16/19
f 16/16/20 41/28/20 9/25/20
f 10/26/21 19/19/21 18/18/21
f 18/18/22 9/25/22 10/26/22
f 11/27/23 21/21/23 20/20/23
f 20/20/24 10/26/24 11/27/24
f 13/12/25 14/13/25 3/3/25
f 3/3/26 2/2/26 13/12/26
f 15/14/27 42/29/27 43/30/27
f 44/31/28 3/3/28 15/14/28
f 17/17/29 18/18/29 5/8/29
f 5/8/30 4/15/30 17/17/30
f 19/19/31 20/20/31 6/9/31
f 6/9/32 5/8/32 19/19/32
f 12/11/33 2/2/33 6/9/33
f 6/9/34 21/21/34 12/11/34
f 45/32/35 3/3/35 22/33/35
f 22/33/36 3/3/36 46/34/36
f 47/35/37 23/36/37 22/33/37
f 4/15/38 5/8/38 24/37/38
f 24/37/39 48/38/39 4/15/39
f 5/8/40 49/39/40 24/37/40
f 50/40/41 22/33/41 25/5/41
f 25/5/42 27/4/42 51/41/42
f 22/33/43 23/36/43 26/6/43
f 26/6/44 25/5/44 22/33/44
f 52/42/45 24/37/45 53/43/45
f 54/44/46 55/45/46 56/46/46
f 24/37/47 57/47/47 58/48/47
f 31/49/48 28/50/48 34/51/48
f 31/49/49 34/51/49 32/52/49
f 32/52/50 34/51/50 29/53/50
f 32/52/51 29/53/51 36/54/51
f 59/55/52 60/56/52 33/57/52
f 33/57/53 61/58/53 30/59/53
f 33/57/54 30/59/54 35/60/54
f 33/57/55 35/60/55 31/49/55
f 31/49/56 35/60/56 28/50/56
f 62/61/57 31/49/57 37/62/57
f 31/49/58 32/52/58 37/62/58
f 32/52/59 63/63/59 37/62/59
